<svg width="75" height="20" viewBox="0 0 50 10" fill="none" xmlns="http://www.w3.org/2000/svg">
<path d="M0.761719 9V0.46875H3.75C4.78516 0.46875 5.57031 0.667969 6.10547 1.06641C6.64062 1.46094 6.9082 2.04102 6.9082 2.80664C6.9082 3.22461 6.80078 3.59375 6.58594 3.91406C6.37109 4.23047 6.07227 4.46289 5.68945 4.61133C6.12695 4.7207 6.4707 4.94141 6.7207 5.27344C6.97461 5.60547 7.10156 6.01172 7.10156 6.49219C7.10156 7.3125 6.83984 7.93359 6.31641 8.35547C5.79297 8.77734 5.04688 8.99219 4.07812 9H0.761719ZM2.51953 5.28516V7.58789H4.02539C4.43945 7.58789 4.76172 7.49023 4.99219 7.29492C5.22656 7.0957 5.34375 6.82227 5.34375 6.47461C5.34375 5.69336 4.93945 5.29688 4.13086 5.28516H2.51953ZM2.51953 4.04297H3.82031C4.70703 4.02734 5.15039 3.67383 5.15039 2.98242C5.15039 2.5957 5.03711 2.31836 4.81055 2.15039C4.58789 1.97852 4.23438 1.89258 3.75 1.89258H2.51953V4.04297ZM10.1016 9H8.40234V0H10.1016V9ZM15.2988 8.35547C14.8809 8.86328 14.3027 9.11719 13.5645 9.11719C12.8848 9.11719 12.3652 8.92188 12.0059 8.53125C11.6504 8.14062 11.4688 7.56836 11.4609 6.81445V2.66016H13.1543V6.75586C13.1543 7.41602 13.4551 7.74609 14.0566 7.74609C14.6309 7.74609 15.0254 7.54688 15.2402 7.14844V2.66016H16.9395V9H15.3457L15.2988 8.35547ZM21.1348 9.11719C20.2051 9.11719 19.4473 8.83203 18.8613 8.26172C18.2793 7.69141 17.9883 6.93164 17.9883 5.98242V5.81836C17.9883 5.18164 18.1113 4.61328 18.3574 4.11328C18.6035 3.60938 18.9512 3.22266 19.4004 2.95312C19.8535 2.67969 20.3691 2.54297 20.9473 2.54297C21.8145 2.54297 22.4961 2.81641 22.9922 3.36328C23.4922 3.91016 23.7422 4.68555 23.7422 5.68945V6.38086H19.7051C19.7598 6.79492 19.9238 7.12695 20.1973 7.37695C20.4746 7.62695 20.8242 7.75195 21.2461 7.75195C21.8984 7.75195 22.4082 7.51562 22.7754 7.04297L23.6074 7.97461C23.3535 8.33398 23.0098 8.61523 22.5762 8.81836C22.1426 9.01758 21.6621 9.11719 21.1348 9.11719ZM20.9414 3.91406C20.6055 3.91406 20.332 4.02734 20.1211 4.25391C19.9141 4.48047 19.7812 4.80469 19.7227 5.22656H22.0781V5.0918C22.0703 4.7168 21.9688 4.42773 21.7734 4.22461C21.5781 4.01758 21.3008 3.91406 20.9414 3.91406ZM26.5781 5.99414V9H24.8203V0.46875H28.1484C28.7891 0.46875 29.3516 0.585938 29.8359 0.820312C30.3242 1.05469 30.6992 1.38867 30.9609 1.82227C31.2227 2.25195 31.3535 2.74219 31.3535 3.29297C31.3535 4.12891 31.0664 4.78906 30.4922 5.27344C29.9219 5.75391 29.1309 5.99414 28.1191 5.99414H26.5781ZM26.5781 4.57031H28.1484C28.6133 4.57031 28.9668 4.46094 29.209 4.24219C29.4551 4.02344 29.5781 3.71094 29.5781 3.30469C29.5781 2.88672 29.4551 2.54883 29.209 2.29102C28.9629 2.0332 28.623 1.90039 28.1895 1.89258H26.5781V4.57031ZM36.0176 4.24805C35.7871 4.2168 35.584 4.20117 35.4082 4.20117C34.7676 4.20117 34.3477 4.41797 34.1484 4.85156V9H32.4551V2.66016H34.0547L34.1016 3.41602C34.4414 2.83398 34.9121 2.54297 35.5137 2.54297C35.7012 2.54297 35.877 2.56836 36.041 2.61914L36.0176 4.24805ZM38.625 9H36.9258V2.66016H38.625V9ZM36.8262 1.01953C36.8262 0.765625 36.9102 0.556641 37.0781 0.392578C37.25 0.228516 37.4824 0.146484 37.7754 0.146484C38.0645 0.146484 38.2949 0.228516 38.4668 0.392578C38.6387 0.556641 38.7246 0.765625 38.7246 1.01953C38.7246 1.27734 38.6367 1.48828 38.4609 1.65234C38.2891 1.81641 38.0605 1.89844 37.7754 1.89844C37.4902 1.89844 37.2598 1.81641 37.084 1.65234C36.9121 1.48828 36.8262 1.27734 36.8262 1.01953ZM41.584 2.66016L41.6367 3.39258C42.0898 2.82617 42.6973 2.54297 43.459 2.54297C44.1309 2.54297 44.6309 2.74023 44.959 3.13477C45.2871 3.5293 45.4551 4.11914 45.4629 4.9043V9H43.7695V4.94531C43.7695 4.58594 43.6914 4.32617 43.5352 4.16602C43.3789 4.00195 43.1191 3.91992 42.7559 3.91992C42.2793 3.91992 41.9219 4.12305 41.6836 4.5293V9H39.9902V2.66016H41.584ZM48.7793 1.10156V2.66016H49.8633V3.90234H48.7793V7.06641C48.7793 7.30078 48.8242 7.46875 48.9141 7.57031C49.0039 7.67188 49.1758 7.72266 49.4297 7.72266C49.6172 7.72266 49.7832 7.70898 49.9277 7.68164V8.96484C49.5957 9.06641 49.2539 9.11719 48.9023 9.11719C47.7148 9.11719 47.1094 8.51758 47.0859 7.31836V3.90234H46.1602V2.66016H47.0859V1.10156H48.7793Z" fill="#1261A0"/>
</svg>
