<?xml version="1.0" encoding="UTF-8"?>
<svg xmlns="http://www.w3.org/2000/svg" xmlns:xlink="http://www.w3.org/1999/xlink" width="375pt" height="374.999991pt" viewBox="0 0 375 374.999991" version="1.2">
<defs>
<clipPath id="clip1">
  <path d="M 25.78125 25.78125 L 349.03125 25.78125 L 349.03125 349.03125 L 25.78125 349.03125 Z M 25.78125 25.78125 "/>
</clipPath>
</defs>
<g id="surface1">
<rect x="0" y="0" width="375" height="374.999991" style="fill:rgb(100%,100%,100%);fill-opacity:1;stroke:none;"/>
<rect x="0" y="0" width="375" height="374.999991" style="fill:rgb(100%,100%,100%);fill-opacity:1;stroke:none;"/>
<rect x="0" y="0" width="375" height="374.999991" style="fill:rgb(100%,100%,100%);fill-opacity:1;stroke:none;"/>
<g clip-path="url(#clip1)" clip-rule="nonzero">
<path style=" stroke:none;fill-rule:nonzero;fill:rgb(18.03894%,25.099182%,56.079102%);fill-opacity:1;" d="M 187.40625 25.78125 C 98.144531 25.78125 25.78125 98.144531 25.78125 187.40625 C 25.78125 276.667969 98.144531 349.03125 187.40625 349.03125 C 276.671875 349.03125 349.03125 276.667969 349.03125 187.40625 C 349.03125 98.144531 276.671875 25.78125 187.40625 25.78125 Z M 250.363281 155.710938 C 251.273438 156.753906 252.628906 157.234375 254.460938 157.125 C 258.945312 156.859375 262.363281 155.457031 264.34375 153.070312 C 265.167969 152.078125 265.71875 150.941406 265.984375 149.699219 C 266.914062 151.910156 267.890625 153.160156 269.65625 153.160156 C 270.246094 153.160156 271.757812 153.160156 274.664062 149.984375 C 275.984375 153.273438 278.324219 156.921875 282.25 157.132812 C 285.28125 157.300781 288.953125 157.265625 291.371094 157.210938 L 291.371094 164.113281 C 284.652344 164.761719 277.273438 164.945312 275.632812 164.125 C 270.792969 161.710938 265.515625 164.90625 265.507812 164.925781 C 263.117188 166.101562 257.335938 168.203125 254.75 167.1875 C 254.269531 167 254 166.738281 253.824219 166.277344 C 253.332031 165.015625 252.921875 163.757812 252.53125 162.570312 C 251.167969 158.429688 249.511719 153.386719 244.871094 153.386719 C 244.289062 153.386719 243.660156 153.464844 242.976562 153.636719 C 241.710938 153.953125 239.242188 154.207031 236.628906 154.476562 C 234.679688 154.675781 232.839844 154.878906 231.128906 155.101562 C 231.972656 154.578125 232.847656 153.929688 233.75 153.128906 C 239.609375 147.921875 245.753906 144.433594 248.601562 144.617188 C 249.179688 144.65625 249.40625 144.835938 249.550781 145.007812 C 250.40625 146.003906 250.167969 147.628906 249.734375 149.820312 C 249.34375 151.800781 248.902344 154.042969 250.363281 155.710938 Z M 251.308594 109.925781 C 253.085938 110.058594 254.785156 109.792969 256.246094 108.773438 C 258.183594 107.417969 259.226562 105.097656 259.441406 101.675781 C 259.878906 94.753906 260.84375 90.78125 261.566406 88.757812 C 262.117188 90.800781 262.679688 93.9375 262.988281 96.972656 C 263.125 98.285156 264.167969 99.335938 265.46875 99.242188 C 265.472656 99.242188 265.671875 99.257812 265.761719 99.367188 C 265.921875 99.5625 266.0625 100.164062 265.9375 101.203125 C 265.367188 105.761719 261.519531 114.183594 257.53125 114.183594 C 255.734375 114.183594 254.089844 112.585938 252.496094 111.042969 C 252.105469 110.667969 251.714844 110.285156 251.308594 109.925781 Z M 177.796875 36.21875 C 178.773438 36.160156 179.746094 36.09375 180.726562 36.054688 C 178.535156 37.351562 176.460938 38.683594 174.605469 40.011719 C 175.925781 38.558594 176.976562 37.320312 177.796875 36.21875 Z M 338.371094 174.921875 C 338.503906 176.503906 338.652344 178.082031 338.734375 179.679688 C 338.445312 179.53125 338.132812 179.390625 337.78125 179.265625 C 336.433594 178.785156 334.652344 178.277344 332.734375 177.730469 C 330.15625 176.996094 325.375 175.632812 323.027344 174.410156 C 326.023438 173.976562 332.269531 174.15625 338.371094 174.921875 Z M 312.441406 201.859375 C 325.996094 199.921875 333.773438 197.132812 335.558594 193.5625 C 335.960938 192.761719 336.886719 191.648438 337.785156 190.570312 C 338.15625 190.125 338.523438 189.675781 338.882812 189.222656 C 337.90625 271.933594 270.347656 338.929688 187.40625 338.929688 C 106.054688 338.929688 39.492188 274.480469 36.046875 193.957031 C 38.140625 194.441406 40.476562 194.25 42.894531 194.050781 C 46.546875 193.746094 50.675781 193.40625 55.570312 194.855469 C 64.980469 197.640625 65.273438 198.984375 65.972656 202.230469 C 66.414062 204.28125 67.023438 207.09375 69.300781 210.734375 C 71.316406 213.964844 74.300781 215.996094 77.925781 216.613281 C 78.773438 216.757812 79.625 216.820312 80.476562 216.820312 C 87.050781 216.820312 93.5 212.925781 95.445312 211.371094 C 97.140625 210.015625 97.046875 208.570312 96.839844 207.828125 C 96.183594 205.484375 93.613281 205.148438 89.71875 204.644531 C 88.335938 204.464844 86.730469 204.253906 85.425781 203.925781 C 86.574219 202.839844 87.910156 201.398438 87.910156 199.359375 C 87.910156 196.613281 85.90625 195.320312 84.300781 194.28125 C 82.980469 193.429688 81.484375 192.460938 80.246094 190.488281 C 79.351562 189.050781 79.507812 188.722656 80.175781 187.34375 C 80.875 185.90625 81.929688 183.734375 81.183594 180.375 C 80.761719 178.484375 79.589844 177.75 78.929688 177.480469 C 76.800781 176.613281 74.726562 177.957031 72.328125 179.523438 C 70.621094 180.636719 68.042969 182.296875 66.800781 181.925781 C 66.101562 181.707031 65.558594 180.601562 65.292969 179.960938 C 64.507812 178.0625 64.96875 177.023438 65.378906 176.40625 C 67.777344 172.820312 77.222656 171.332031 81.746094 171.332031 C 82.691406 171.332031 84.742188 173.042969 86.238281 174.289062 C 89.285156 176.824219 93.078125 179.980469 97.179688 178.441406 C 100.398438 177.238281 102.753906 172.257812 106.976562 162.832031 C 110.171875 155.703125 113.792969 147.621094 117.480469 143.9375 C 122.160156 139.257812 126.984375 139.589844 131.65625 139.914062 C 133.917969 140.066406 136.058594 140.214844 138.0625 139.769531 C 139.753906 139.394531 141.820312 138.71875 142.789062 136.832031 C 143.945312 134.589844 142.949219 132.253906 141.445312 128.71875 C 141.183594 128.105469 140.898438 127.441406 140.601562 126.722656 C 141.699219 126.859375 142.945312 126.800781 144.300781 126.398438 C 144.503906 126.335938 144.617188 126.328125 144.632812 126.3125 C 144.996094 126.617188 145.546875 128.039062 145.875 128.894531 C 147.082031 132.015625 149.058594 137.257812 155.867188 136.796875 C 158.480469 136.621094 160.371094 135.71875 161.480469 134.117188 C 163.523438 131.167969 162.292969 127.085938 160.734375 121.925781 C 159.734375 118.613281 158.597656 114.859375 158.210938 110.980469 C 157.746094 106.328125 156.316406 103.34375 153.835938 101.863281 C 150.542969 99.890625 146.851562 101.421875 144.640625 102.335938 C 144.632812 102.339844 144.625 102.339844 144.617188 102.34375 C 144.238281 101.539062 143.773438 100.296875 143.410156 99.3125 C 142.09375 95.78125 140.609375 91.78125 137.828125 89.675781 C 136.808594 88.902344 135.597656 88.617188 134.417969 88.867188 C 131.703125 89.445312 129.984375 92.574219 127.992188 96.191406 C 126.957031 98.074219 124.800781 101.992188 123.765625 102.195312 C 118.835938 100.550781 115.90625 105.121094 114.40625 107.691406 C 113.652344 106.703125 113.09375 105.425781 112.753906 101.308594 C 112.519531 98.46875 122.597656 91.84375 128.011719 88.285156 C 133.96875 84.371094 139.113281 80.992188 140.890625 78.023438 C 141.613281 76.820312 142.960938 74.578125 141.449219 72.789062 C 139.953125 71.027344 137.878906 71.84375 135.472656 72.785156 C 133.734375 73.46875 131.183594 74.464844 129.316406 74.296875 C 129.617188 73.308594 130.636719 71.667969 131.015625 71.0625 C 131.707031 69.949219 132.867188 68.082031 131.199219 66.589844 C 129.527344 65.089844 127.726562 66.492188 126.863281 67.167969 C 122.796875 70.359375 112.449219 74.199219 109.023438 74.199219 C 108.410156 74.199219 108.015625 74.183594 107.765625 74.160156 C 107.652344 73.539062 107.570312 72.367188 107.492188 71.222656 C 107.4375 70.472656 107.378906 69.613281 107.296875 68.636719 C 107.117188 66.472656 106.128906 64.628906 104.445312 63.308594 C 103.808594 62.8125 103.089844 62.417969 102.332031 62.089844 C 107.28125 58.722656 112.453125 55.664062 117.792969 52.890625 C 119.691406 54.757812 124.503906 57.535156 138.207031 60.417969 C 141.902344 61.195312 144.425781 62.359375 146.457031 63.296875 C 148.3125 64.15625 149.953125 64.804688 151.488281 64.804688 C 153.765625 64.804688 155.804688 63.375 157.957031 59.074219 C 159.289062 56.414062 162.953125 52.339844 166.757812 48.3125 C 166.484375 49.109375 166.402344 49.882812 166.566406 50.617188 C 167.285156 53.855469 168.730469 56.691406 169.890625 58.96875 C 170.339844 59.855469 170.914062 60.980469 171.191406 61.714844 C 170.886719 61.925781 170.496094 62.167969 170.175781 62.367188 C 168.082031 63.675781 165.210938 65.46875 164.695312 68.714844 C 164.359375 70.832031 165.15625 73.054688 167.058594 75.320312 C 170.347656 79.238281 169.453125 82.085938 168.320312 85.683594 C 167.726562 87.574219 167.113281 89.527344 167.113281 91.6875 C 167.113281 92.746094 166.953125 94.464844 166.789062 96.285156 C 165.992188 104.960938 165.699219 111.28125 169.234375 113.625 C 169.84375 114.03125 170.695312 114.390625 171.792969 114.390625 C 172.710938 114.390625 173.804688 114.136719 175.074219 113.460938 C 179.179688 111.261719 180.402344 108.949219 181.820312 106.273438 C 183.566406 102.972656 185.957031 98.449219 195.539062 90.179688 C 212.558594 75.480469 225.488281 47.804688 226.082031 40.90625 C 249.996094 47.222656 271.617188 59.238281 289.375 75.429688 C 287.269531 79.152344 284.480469 82.523438 282.226562 82.113281 C 281.398438 81.964844 281.367188 81.957031 281.261719 79.746094 C 281.113281 76.515625 280.863281 71.109375 271.957031 69.359375 C 259.25 66.863281 241.203125 72.617188 236.984375 83.78125 C 234.074219 91.480469 233.789062 99.007812 236.238281 103.433594 C 237.511719 105.726562 239.460938 107.191406 241.882812 107.675781 C 242.902344 107.878906 244.007812 108.203125 245.179688 108.550781 C 244.460938 108.972656 243.820312 109.632812 243.265625 110.523438 C 238.160156 118.691406 232.082031 125.058594 230.253906 125.085938 C 227.078125 125.085938 224.542969 127.902344 223.46875 132.617188 C 223.042969 134.496094 222.78125 136.710938 223.335938 138.328125 C 223.304688 138.359375 223.277344 138.386719 223.25 138.421875 C 221.300781 137.425781 218.226562 136.273438 215.75 137.238281 C 214.199219 137.839844 213.097656 139.152344 212.652344 140.933594 C 211.546875 145.355469 212.558594 151.410156 214.914062 154.425781 C 216.441406 156.382812 218.167969 156.792969 219.34375 156.792969 C 220.019531 156.792969 220.695312 156.871094 221.386719 156.941406 C 221.640625 156.96875 221.902344 156.996094 222.171875 157.019531 C 220.089844 157.808594 218.578125 158.847656 217.757812 160.285156 L 216.671875 162.214844 C 214.714844 165.707031 212.691406 169.320312 210.496094 171.074219 L 210.035156 171.441406 C 207.011719 173.839844 202.441406 177.46875 200.515625 185.804688 C 198.457031 194.722656 202.945312 213.921875 214.503906 216.75 C 222.03125 218.59375 231.261719 217.789062 238.007812 217.203125 C 240.289062 217.003906 242.261719 216.832031 243.613281 216.820312 C 246.308594 216.820312 247.644531 218.207031 248.347656 225.980469 C 248.714844 230.042969 250.410156 232.582031 251.90625 234.820312 C 253.175781 236.722656 254.179688 238.222656 254.410156 240.546875 C 254.65625 243.023438 254.453125 244.726562 254.195312 246.882812 C 253.863281 249.628906 253.453125 253.046875 253.800781 259.210938 C 253.9375 261.722656 253.875 264.453125 253.8125 267.347656 C 253.601562 276.859375 253.359375 287.640625 261.382812 291.078125 C 262.578125 291.589844 263.59375 292.113281 264.5 292.582031 C 266.8125 293.773438 268.683594 294.523438 270.519531 294.523438 C 274.515625 294.523438 278.347656 290.957031 286.210938 280.589844 C 300.257812 262.085938 303.140625 253.109375 305.453125 243.296875 C 307.832031 233.191406 315.097656 224.097656 320.847656 219.921875 C 326.550781 215.773438 330.625 209.265625 329.558594 205.992188 C 329.132812 204.6875 327.984375 203.84375 326.632812 203.84375 C 326.359375 203.84375 325.808594 203.894531 325.042969 203.988281 C 321.019531 204.460938 308.777344 205.910156 305.289062 198.304688 C 305.023438 197.734375 304.757812 197.160156 304.480469 196.585938 C 306.980469 200.046875 309.574219 202.257812 312.441406 201.859375 Z M 312.441406 201.859375 "/>
</g>
<path style=" stroke:none;fill-rule:nonzero;fill:rgb(18.03894%,25.099182%,56.079102%);fill-opacity:1;" d="M 172.773438 228.78125 C 166.191406 226.847656 159.449219 221.945312 153.496094 217.621094 C 150.617188 215.53125 147.902344 213.558594 145.464844 212.121094 C 138.628906 208.085938 127.652344 206.171875 125.078125 205.765625 C 123.214844 204.59375 121.464844 203.296875 119.765625 202.042969 C 115.953125 199.21875 112.933594 196.988281 109.933594 196.988281 C 108.511719 196.988281 106.503906 197.507812 105.035156 199.976562 C 102.195312 204.75 99.1875 209.472656 93.578125 214.839844 C 92.335938 216.03125 90.570312 217.179688 88.863281 218.296875 C 85.007812 220.808594 81.019531 223.410156 80.574219 227.707031 C 80.277344 230.5625 81.660156 233.480469 84.808594 236.625 C 88.28125 240.09375 92.375 242.292969 96.332031 244.421875 C 104.070312 248.578125 110.75 252.167969 112.59375 264.296875 C 116.019531 286.929688 130.589844 308.628906 136.695312 316.910156 C 141.15625 322.964844 145.925781 326.304688 150.113281 326.304688 C 151.886719 326.304688 153.496094 325.679688 154.644531 324.550781 C 155.777344 323.4375 156.402344 321.914062 156.402344 320.257812 C 156.402344 319.039062 156.519531 317.761719 156.636719 316.410156 C 156.925781 313.203125 157.253906 309.566406 156.363281 304.664062 C 155.160156 298.039062 155.21875 294.882812 156.585938 292.597656 C 156.824219 292.199219 157.359375 292.046875 158.4375 291.808594 C 159.644531 291.542969 161.296875 291.183594 162.21875 289.609375 C 162.859375 288.515625 162.929688 287.207031 162.4375 285.59375 C 162.144531 284.628906 161.777344 283.71875 161.414062 282.839844 C 160.242188 279.964844 159.65625 278.519531 161.9375 275.863281 C 166.257812 270.828125 173.257812 259.441406 174.558594 250.976562 C 174.882812 248.878906 175.933594 246.558594 176.949219 244.316406 C 178.648438 240.570312 180.40625 236.691406 178.839844 233.269531 C 177.875 231.164062 175.890625 229.699219 172.773438 228.78125 Z M 172.773438 228.78125 "/>
<path style=" stroke:none;fill-rule:nonzero;fill:rgb(18.03894%,25.099182%,56.079102%);fill-opacity:1;" d="M 159.722656 65.199219 C 159.066406 64.019531 157.601562 63.5625 156.386719 64.167969 C 156.132812 64.292969 150.140625 67.359375 150.140625 73.695312 C 150.140625 74.964844 148.308594 77.253906 146.972656 78.925781 C 144.621094 81.863281 141.066406 86.300781 144.992188 89.570312 C 145.949219 90.371094 147.265625 90.792969 148.796875 90.792969 C 152.53125 90.792969 157.824219 88.222656 160.707031 83.316406 C 162.839844 79.695312 164.398438 73.609375 159.722656 65.199219 Z M 159.722656 65.199219 "/>
<path style=" stroke:none;fill-rule:nonzero;fill:rgb(18.03894%,25.099182%,56.079102%);fill-opacity:1;" d="M 207.746094 109.273438 C 217.648438 104.324219 216.460938 88.71875 216.40625 88.054688 C 216.34375 87.320312 215.964844 86.648438 215.359375 86.214844 C 214.757812 85.785156 214 85.640625 213.28125 85.816406 C 211.070312 86.363281 199.886719 89.375 197.078125 94.980469 C 195.441406 98.257812 195.050781 103.753906 197.230469 107.277344 C 198.53125 109.382812 200.582031 110.542969 203.003906 110.542969 C 204.46875 110.542969 206.0625 110.117188 207.746094 109.273438 Z M 207.746094 109.273438 "/>
</g>
</svg>
