<?xml version="1.0" encoding="UTF-8"?>
<svg xmlns="http://www.w3.org/2000/svg" xmlns:xlink="http://www.w3.org/1999/xlink" width="375pt" height="374.999991pt" viewBox="0 0 375 374.999991" version="1.2">
<defs>
<clipPath id="clip1">
  <path d="M 46.050781 46.050781 L 328.800781 46.050781 L 328.800781 328.800781 L 46.050781 328.800781 Z M 46.050781 46.050781 "/>
</clipPath>
</defs>
<g id="surface1">
<rect x="0" y="0" width="375" height="374.999991" style="fill:rgb(100%,100%,100%);fill-opacity:1;stroke:none;"/>
<rect x="0" y="0" width="375" height="374.999991" style="fill:rgb(100%,100%,100%);fill-opacity:1;stroke:none;"/>
<rect x="0" y="0" width="375" height="374.999991" style="fill:rgb(100%,100%,100%);fill-opacity:1;stroke:none;"/>
<g clip-path="url(#clip1)" clip-rule="nonzero">
<path style=" stroke:none;fill-rule:nonzero;fill:rgb(18.03894%,25.099182%,56.079102%);fill-opacity:1;" d="M 295.777344 262.53125 C 289.148438 262.53125 282.746094 264.519531 277.664062 268.054688 L 227.519531 217.691406 C 227.078125 217.246094 226.636719 217.027344 226.195312 216.585938 C 232.378906 208.632812 236.132812 198.472656 236.132812 187.425781 C 236.132812 171.742188 228.625 157.828125 217.136719 148.992188 L 237.679688 112.761719 C 240.996094 113.867188 244.75 114.53125 248.503906 114.53125 C 267.28125 114.53125 282.746094 99.066406 282.746094 80.289062 C 282.746094 61.515625 267.28125 46.050781 248.285156 46.050781 C 229.285156 46.050781 214.042969 61.515625 214.042969 80.289062 C 214.042969 90.671875 218.683594 99.949219 225.972656 106.355469 L 205.429688 142.363281 C 199.90625 140.15625 193.722656 138.828125 187.316406 138.828125 C 176.269531 138.828125 166.332031 142.585938 158.15625 148.546875 C 158.15625 148.328125 157.9375 148.328125 157.9375 148.105469 L 129.882812 120.050781 C 131.429688 116.960938 132.3125 113.648438 132.3125 110.113281 C 132.3125 97.960938 122.371094 88.023438 110.222656 88.023438 C 98.074219 88.023438 88.132812 97.960938 88.132812 110.113281 C 88.132812 122.261719 98.074219 132.203125 110.222656 132.203125 C 113.976562 132.203125 117.511719 131.320312 120.605469 129.550781 L 148.660156 157.605469 C 148.660156 157.605469 148.878906 157.828125 149.101562 157.828125 C 142.695312 166.21875 138.9375 176.382812 138.9375 187.425781 C 138.9375 197.144531 141.8125 206.203125 146.671875 213.714844 L 100.503906 253.917969 C 94.757812 249.71875 87.910156 247.289062 80.179688 247.289062 C 61.625 247.289062 46.160156 262.53125 46.160156 281.308594 C 46.160156 300.085938 61.625 315.546875 80.402344 315.546875 C 99.175781 315.546875 114.640625 300.304688 114.640625 281.308594 C 114.640625 274.902344 112.875 268.71875 109.558594 263.636719 L 155.507812 223.875 C 164.121094 231.386719 175.167969 236.023438 187.535156 236.023438 C 198.804688 236.023438 208.964844 232.269531 217.136719 225.863281 C 217.359375 226.304688 217.800781 226.746094 218.019531 227.1875 L 267.945312 277.332031 C 264.410156 282.632812 262.421875 288.820312 262.421875 295.667969 C 262.421875 314 277.222656 328.800781 295.554688 328.800781 C 313.890625 328.800781 328.691406 314 328.691406 295.667969 C 328.691406 277.332031 314.113281 262.53125 295.777344 262.53125 Z M 295.777344 262.53125 "/>
</g>
</g>
</svg>
