<?xml version="1.0" encoding="UTF-8"?>
<svg xmlns="http://www.w3.org/2000/svg" xmlns:xlink="http://www.w3.org/1999/xlink" width="375pt" height="374.999991pt" viewBox="0 0 375 374.999991" version="1.2">
<defs>
<clipPath id="clip1">
  <path d="M 152 95 L 253 95 L 253 132 L 152 132 Z M 152 95 "/>
</clipPath>
<clipPath id="clip2">
  <path d="M 0 115.148438 L 286.53125 14.335938 L 372.910156 259.832031 L 86.378906 360.648438 Z M 0 115.148438 "/>
</clipPath>
<clipPath id="clip3">
  <path d="M 0 115.148438 L 286.53125 14.335938 L 372.910156 259.832031 L 86.378906 360.648438 Z M 0 115.148438 "/>
</clipPath>
<clipPath id="clip4">
  <path d="M 95 113 L 139 113 L 139 177 L 95 177 Z M 95 113 "/>
</clipPath>
<clipPath id="clip5">
  <path d="M 0 115.148438 L 286.53125 14.335938 L 372.910156 259.832031 L 86.378906 360.648438 Z M 0 115.148438 "/>
</clipPath>
<clipPath id="clip6">
  <path d="M 0 115.148438 L 286.53125 14.335938 L 372.910156 259.832031 L 86.378906 360.648438 Z M 0 115.148438 "/>
</clipPath>
<clipPath id="clip7">
  <path d="M 123 217 L 272 217 L 272 280 L 123 280 Z M 123 217 "/>
</clipPath>
<clipPath id="clip8">
  <path d="M 0 115.148438 L 286.53125 14.335938 L 372.910156 259.832031 L 86.378906 360.648438 Z M 0 115.148438 "/>
</clipPath>
<clipPath id="clip9">
  <path d="M 0 115.148438 L 286.53125 14.335938 L 372.910156 259.832031 L 86.378906 360.648438 Z M 0 115.148438 "/>
</clipPath>
<clipPath id="clip10">
  <path d="M 264 186 L 279 186 L 279 216 L 264 216 Z M 264 186 "/>
</clipPath>
<clipPath id="clip11">
  <path d="M 0 115.148438 L 286.53125 14.335938 L 372.910156 259.832031 L 86.378906 360.648438 Z M 0 115.148438 "/>
</clipPath>
<clipPath id="clip12">
  <path d="M 0 115.148438 L 286.53125 14.335938 L 372.910156 259.832031 L 86.378906 360.648438 Z M 0 115.148438 "/>
</clipPath>
<clipPath id="clip13">
  <path d="M 43 127 L 330 127 L 330 248 L 43 248 Z M 43 127 "/>
</clipPath>
<clipPath id="clip14">
  <path d="M 0 115.148438 L 286.53125 14.335938 L 372.910156 259.832031 L 86.378906 360.648438 Z M 0 115.148438 "/>
</clipPath>
<clipPath id="clip15">
  <path d="M 0 115.148438 L 286.53125 14.335938 L 372.910156 259.832031 L 86.378906 360.648438 Z M 0 115.148438 "/>
</clipPath>
<clipPath id="clip16">
  <path d="M 159 160 L 214 160 L 214 215 L 159 215 Z M 159 160 "/>
</clipPath>
<clipPath id="clip17">
  <path d="M 0 115.148438 L 286.53125 14.335938 L 372.910156 259.832031 L 86.378906 360.648438 Z M 0 115.148438 "/>
</clipPath>
<clipPath id="clip18">
  <path d="M 0 115.148438 L 286.53125 14.335938 L 372.910156 259.832031 L 86.378906 360.648438 Z M 0 115.148438 "/>
</clipPath>
<clipPath id="clip19">
  <path d="M 315 240 L 348 240 L 348 274 L 315 274 Z M 315 240 "/>
</clipPath>
<clipPath id="clip20">
  <path d="M 0 115.148438 L 286.53125 14.335938 L 372.910156 259.832031 L 86.378906 360.648438 Z M 0 115.148438 "/>
</clipPath>
<clipPath id="clip21">
  <path d="M 0 115.148438 L 286.53125 14.335938 L 372.910156 259.832031 L 86.378906 360.648438 Z M 0 115.148438 "/>
</clipPath>
<clipPath id="clip22">
  <path d="M 36 95 L 81 95 L 81 140 L 36 140 Z M 36 95 "/>
</clipPath>
<clipPath id="clip23">
  <path d="M 0 115.148438 L 286.53125 14.335938 L 372.910156 259.832031 L 86.378906 360.648438 Z M 0 115.148438 "/>
</clipPath>
<clipPath id="clip24">
  <path d="M 0 115.148438 L 286.53125 14.335938 L 372.910156 259.832031 L 86.378906 360.648438 Z M 0 115.148438 "/>
</clipPath>
<clipPath id="clip25">
  <path d="M 108 280 L 131 280 L 131 303 L 108 303 Z M 108 280 "/>
</clipPath>
<clipPath id="clip26">
  <path d="M 0 115.148438 L 286.53125 14.335938 L 372.910156 259.832031 L 86.378906 360.648438 Z M 0 115.148438 "/>
</clipPath>
<clipPath id="clip27">
  <path d="M 0 115.148438 L 286.53125 14.335938 L 372.910156 259.832031 L 86.378906 360.648438 Z M 0 115.148438 "/>
</clipPath>
<clipPath id="clip28">
  <path d="M 143 290 L 158 290 L 158 305 L 143 305 Z M 143 290 "/>
</clipPath>
<clipPath id="clip29">
  <path d="M 0 115.148438 L 286.53125 14.335938 L 372.910156 259.832031 L 86.378906 360.648438 Z M 0 115.148438 "/>
</clipPath>
<clipPath id="clip30">
  <path d="M 0 115.148438 L 286.53125 14.335938 L 372.910156 259.832031 L 86.378906 360.648438 Z M 0 115.148438 "/>
</clipPath>
<clipPath id="clip31">
  <path d="M 167 64 L 182 64 L 182 79 L 167 79 Z M 167 64 "/>
</clipPath>
<clipPath id="clip32">
  <path d="M 0 115.148438 L 286.53125 14.335938 L 372.910156 259.832031 L 86.378906 360.648438 Z M 0 115.148438 "/>
</clipPath>
<clipPath id="clip33">
  <path d="M 0 115.148438 L 286.53125 14.335938 L 372.910156 259.832031 L 86.378906 360.648438 Z M 0 115.148438 "/>
</clipPath>
<clipPath id="clip34">
  <path d="M 191 67 L 206 67 L 206 82 L 191 82 Z M 191 67 "/>
</clipPath>
<clipPath id="clip35">
  <path d="M 0 115.148438 L 286.53125 14.335938 L 372.910156 259.832031 L 86.378906 360.648438 Z M 0 115.148438 "/>
</clipPath>
<clipPath id="clip36">
  <path d="M 0 115.148438 L 286.53125 14.335938 L 372.910156 259.832031 L 86.378906 360.648438 Z M 0 115.148438 "/>
</clipPath>
<clipPath id="clip37">
  <path d="M 194 43 L 209 43 L 209 57 L 194 57 Z M 194 43 "/>
</clipPath>
<clipPath id="clip38">
  <path d="M 0 115.148438 L 286.53125 14.335938 L 372.910156 259.832031 L 86.378906 360.648438 Z M 0 115.148438 "/>
</clipPath>
<clipPath id="clip39">
  <path d="M 0 115.148438 L 286.53125 14.335938 L 372.910156 259.832031 L 86.378906 360.648438 Z M 0 115.148438 "/>
</clipPath>
</defs>
<g id="surface1">
<rect x="0" y="0" width="375" height="374.999991" style="fill:rgb(100%,100%,100%);fill-opacity:1;stroke:none;"/>
<rect x="0" y="0" width="375" height="374.999991" style="fill:rgb(100%,100%,100%);fill-opacity:1;stroke:none;"/>
<rect x="0" y="0" width="375" height="374.999991" style="fill:rgb(100%,100%,100%);fill-opacity:1;stroke:none;"/>
<g clip-path="url(#clip1)" clip-rule="nonzero">
<g clip-path="url(#clip2)" clip-rule="nonzero">
<g clip-path="url(#clip3)" clip-rule="nonzero">
<path style=" stroke:none;fill-rule:nonzero;fill:rgb(18.03894%,25.099182%,56.079102%);fill-opacity:1;" d="M 152.550781 107.457031 C 153.542969 110.273438 156.648438 111.765625 159.460938 110.773438 C 189.03125 100.371094 221.289062 107.609375 243.609375 129.664062 C 245.128906 131.171875 247.335938 131.585938 249.234375 130.917969 C 249.972656 130.65625 250.675781 130.230469 251.265625 129.617188 C 253.386719 127.480469 253.351562 124.058594 251.21875 121.957031 C 225.910156 96.960938 189.386719 88.75 155.863281 100.542969 C 153.046875 101.535156 151.5625 104.640625 152.550781 107.457031 "/>
</g>
</g>
</g>
<g clip-path="url(#clip4)" clip-rule="nonzero">
<g clip-path="url(#clip5)" clip-rule="nonzero">
<g clip-path="url(#clip6)" clip-rule="nonzero">
<path style=" stroke:none;fill-rule:nonzero;fill:rgb(18.03894%,25.099182%,56.079102%);fill-opacity:1;" d="M 100.214844 176.8125 C 101.183594 177.011719 102.140625 176.921875 103.019531 176.613281 C 104.777344 175.996094 106.167969 174.472656 106.550781 172.496094 C 110.25 152.785156 121.007812 135.214844 136.847656 123.019531 C 139.210938 121.199219 139.65625 117.808594 137.828125 115.421875 C 136.007812 113.054688 132.613281 112.585938 130.234375 114.433594 C 112.296875 128.242188 100.089844 148.140625 95.886719 170.503906 C 95.347656 173.429688 97.269531 176.28125 100.214844 176.8125 "/>
</g>
</g>
</g>
<g clip-path="url(#clip7)" clip-rule="nonzero">
<g clip-path="url(#clip8)" clip-rule="nonzero">
<g clip-path="url(#clip9)" clip-rule="nonzero">
<path style=" stroke:none;fill-rule:nonzero;fill:rgb(18.03894%,25.099182%,56.079102%);fill-opacity:1;" d="M 260.699219 220.644531 C 251.503906 241.253906 234.710938 256.726562 213.449219 264.210938 C 185.59375 274.007812 154.542969 267.894531 132.441406 248.253906 C 130.199219 246.28125 126.789062 246.472656 124.800781 248.722656 C 122.800781 250.953125 123 254.386719 125.25 256.378906 C 150.3125 278.632812 185.480469 285.546875 217.046875 274.4375 C 241.144531 265.960938 260.171875 248.421875 270.582031 225.070312 C 271.792969 222.328125 270.574219 219.121094 267.835938 217.90625 C 265.117188 216.6875 261.910156 217.902344 260.699219 220.644531 "/>
</g>
</g>
</g>
<g clip-path="url(#clip10)" clip-rule="nonzero">
<g clip-path="url(#clip11)" clip-rule="nonzero">
<g clip-path="url(#clip12)" clip-rule="nonzero">
<path style=" stroke:none;fill-rule:nonzero;fill:rgb(18.03894%,25.099182%,56.079102%);fill-opacity:1;" d="M 272.074219 214.84375 C 273.691406 214.273438 275.035156 212.925781 275.5 211.125 C 277.203125 204.800781 278.203125 198.273438 278.511719 191.746094 C 278.648438 188.753906 276.324219 186.226562 273.335938 186.089844 C 270.359375 185.921875 267.816406 188.253906 267.675781 191.246094 C 267.410156 196.996094 266.515625 202.746094 265.050781 208.335938 C 264.277344 211.234375 265.992188 214.199219 268.890625 214.976562 C 269.980469 215.265625 271.078125 215.195312 272.074219 214.84375 "/>
</g>
</g>
</g>
<g clip-path="url(#clip13)" clip-rule="nonzero">
<g clip-path="url(#clip14)" clip-rule="nonzero">
<g clip-path="url(#clip15)" clip-rule="nonzero">
<path style=" stroke:none;fill-rule:nonzero;fill:rgb(18.03894%,25.099182%,56.079102%);fill-opacity:1;" d="M 199.050781 223.292969 C 179.324219 230.234375 157.621094 219.820312 150.675781 200.082031 C 143.730469 180.339844 154.132812 158.628906 173.859375 151.691406 C 193.585938 144.75 215.289062 155.164062 222.234375 174.902344 C 229.179688 194.640625 218.777344 216.351562 199.050781 223.292969 Z M 328.496094 136.503906 C 328.476562 136.511719 328.476562 136.511719 328.476562 136.511719 L 259.417969 148.574219 C 246.355469 150.859375 232.84375 147.527344 221.320312 139.210938 C 205.484375 127.742188 185.050781 124.761719 166.660156 131.230469 C 148.273438 137.703125 134.207031 152.820312 129.039062 171.679688 C 125.265625 185.378906 116.8125 196.433594 105.199219 202.835938 L 43.78125 236.679688 C 43.363281 236.894531 43.175781 237.386719 43.335938 237.847656 C 43.5 238.304688 43.953125 238.574219 44.414062 238.476562 L 113.492188 226.410156 C 126.554688 224.125 140.066406 227.453125 151.589844 235.773438 C 167.425781 247.242188 187.859375 250.222656 206.25 243.75 C 224.636719 237.28125 238.707031 222.160156 243.871094 203.304688 C 247.644531 189.605469 256.097656 178.546875 267.710938 172.148438 L 329.109375 138.308594 C 329.550781 138.089844 329.734375 137.597656 329.574219 137.136719 C 329.410156 136.675781 328.957031 136.410156 328.496094 136.503906 "/>
</g>
</g>
</g>
<g clip-path="url(#clip16)" clip-rule="nonzero">
<g clip-path="url(#clip17)" clip-rule="nonzero">
<g clip-path="url(#clip18)" clip-rule="nonzero">
<path style=" stroke:none;fill-rule:nonzero;fill:rgb(18.03894%,25.099182%,56.079102%);fill-opacity:1;" d="M 177.457031 161.917969 C 163.363281 166.878906 155.9375 182.378906 160.898438 196.484375 C 165.859375 210.589844 181.355469 218.023438 195.453125 213.0625 C 209.546875 208.105469 216.976562 192.605469 212.011719 178.5 C 207.050781 164.394531 191.554688 156.960938 177.457031 161.917969 "/>
</g>
</g>
</g>
<g clip-path="url(#clip19)" clip-rule="nonzero">
<g clip-path="url(#clip20)" clip-rule="nonzero">
<g clip-path="url(#clip21)" clip-rule="nonzero">
<path style=" stroke:none;fill-rule:nonzero;fill:rgb(18.03894%,25.099182%,56.079102%);fill-opacity:1;" d="M 326.472656 258.929688 C 325.480469 256.113281 326.96875 253.007812 329.785156 252.015625 C 332.597656 251.027344 335.703125 252.515625 336.695312 255.332031 C 337.6875 258.148438 336.199219 261.253906 333.382812 262.246094 C 330.566406 263.234375 327.464844 261.746094 326.472656 258.929688 Z M 346.917969 251.734375 C 343.9375 243.265625 334.648438 238.808594 326.183594 241.789062 C 317.71875 244.765625 313.269531 254.054688 316.25 262.527344 C 319.230469 270.996094 328.515625 275.453125 336.980469 272.472656 C 345.449219 269.496094 349.898438 260.207031 346.917969 251.734375 "/>
</g>
</g>
</g>
<g clip-path="url(#clip22)" clip-rule="nonzero">
<g clip-path="url(#clip23)" clip-rule="nonzero">
<g clip-path="url(#clip24)" clip-rule="nonzero">
<path style=" stroke:none;fill-rule:nonzero;fill:rgb(18.03894%,25.099182%,56.079102%);fill-opacity:1;" d="M 68.683594 113.976562 C 70.664062 119.609375 67.691406 125.820312 62.058594 127.800781 C 56.429688 129.78125 50.21875 126.800781 48.238281 121.167969 C 46.253906 115.535156 49.230469 109.324219 54.863281 107.34375 C 60.492188 105.363281 66.699219 108.339844 68.683594 113.976562 Z M 38.015625 124.765625 C 41.988281 136.054688 54.378906 142 65.660156 138.03125 C 76.941406 134.0625 82.878906 121.667969 78.90625 110.378906 C 74.933594 99.089844 62.542969 93.144531 51.261719 97.113281 C 39.980469 101.082031 34.042969 113.476562 38.015625 124.765625 "/>
</g>
</g>
</g>
<g clip-path="url(#clip25)" clip-rule="nonzero">
<g clip-path="url(#clip26)" clip-rule="nonzero">
<g clip-path="url(#clip27)" clip-rule="nonzero">
<path style=" stroke:none;fill-rule:nonzero;fill:rgb(18.03894%,25.099182%,56.079102%);fill-opacity:1;" d="M 116.042969 281.238281 C 110.414062 283.21875 107.4375 289.429688 109.421875 295.0625 C 111.402344 300.695312 117.613281 303.675781 123.242188 301.695312 C 128.875 299.714844 131.847656 293.503906 129.867188 287.871094 C 127.882812 282.234375 121.675781 279.257812 116.042969 281.238281 "/>
</g>
</g>
</g>
<g clip-path="url(#clip28)" clip-rule="nonzero">
<g clip-path="url(#clip29)" clip-rule="nonzero">
<g clip-path="url(#clip30)" clip-rule="nonzero">
<path style=" stroke:none;fill-rule:nonzero;fill:rgb(18.03894%,25.099182%,56.079102%);fill-opacity:1;" d="M 147.289062 304.730469 L 157.511719 301.132812 L 153.910156 290.90625 L 143.6875 294.5 L 147.289062 304.730469 "/>
</g>
</g>
</g>
<g clip-path="url(#clip31)" clip-rule="nonzero">
<g clip-path="url(#clip32)" clip-rule="nonzero">
<g clip-path="url(#clip33)" clip-rule="nonzero">
<path style=" stroke:none;fill-rule:nonzero;fill:rgb(18.03894%,25.099182%,56.079102%);fill-opacity:1;" d="M 170.910156 78.007812 L 181.132812 74.410156 L 177.535156 64.179688 L 167.3125 67.777344 L 170.910156 78.007812 "/>
</g>
</g>
</g>
<g clip-path="url(#clip34)" clip-rule="nonzero">
<g clip-path="url(#clip35)" clip-rule="nonzero">
<g clip-path="url(#clip36)" clip-rule="nonzero">
<path style=" stroke:none;fill-rule:nonzero;fill:rgb(18.03894%,25.099182%,56.079102%);fill-opacity:1;" d="M 191.355469 70.8125 L 194.953125 81.042969 L 205.175781 77.445312 L 201.578125 67.21875 L 191.355469 70.8125 "/>
</g>
</g>
</g>
<g clip-path="url(#clip37)" clip-rule="nonzero">
<g clip-path="url(#clip38)" clip-rule="nonzero">
<g clip-path="url(#clip39)" clip-rule="nonzero">
<path style=" stroke:none;fill-rule:nonzero;fill:rgb(18.03894%,25.099182%,56.079102%);fill-opacity:1;" d="M 204.601562 43.164062 L 194.378906 46.757812 L 197.980469 56.988281 L 208.203125 53.390625 L 204.601562 43.164062 "/>
</g>
</g>
</g>
</g>
</svg>
